<svg width="160" height="33" viewBox="0 0 160 33" fill="none" xmlns="http://www.w3.org/2000/svg">
<path d="M94.4507 2.61723C94.2274 2.82332 94.0537 3.28701 94.0537 3.6219C94.0537 5.06451 95.8154 5.50244 96.5102 4.24016C96.8328 3.6219 96.8328 3.4931 96.4606 2.87484C95.9643 2.10202 95.0462 1.97321 94.4507 2.61723Z" fill="white"/>
<path d="M84.0291 6.24951C83.9546 7.48603 83.8306 8.54222 83.7561 8.59374C83.7065 8.64527 83.0614 8.77407 82.3418 8.87711C81.2252 9.00592 81.0267 9.10896 80.9523 9.59841C80.8778 10.1136 80.9771 10.1652 82.317 10.2424L83.7561 10.3197L83.8802 16.7599C83.9795 22.4531 84.0539 23.3032 84.4509 23.9472C85.0712 24.9003 86.2871 25.3898 88.024 25.364C90.1083 25.3383 90.679 25.1064 90.7782 24.3078L90.8527 23.6381L88.7188 23.6638C85.5179 23.7411 85.6171 23.9987 85.6171 16.3477V10.1909H88.0984H90.5797V9.41809V8.64527H88.0984H85.6171V6.32679V4.00832H84.8975H84.2028L84.0291 6.24951Z" fill="white"/>
<path d="M135.144 4.96147C135.07 5.50245 134.996 6.53288 134.996 7.25418C134.996 8.69679 134.797 8.87711 133.135 8.90287C132.167 8.90287 131.671 9.26352 131.844 9.75298C131.944 10.0363 132.415 10.1909 133.432 10.2424L134.871 10.3197L134.996 16.9145C135.12 24.179 135.12 24.1275 136.782 25.0291C137.576 25.4413 139.685 25.4928 141.025 25.1064C141.77 24.9003 141.943 24.72 141.943 24.2306C141.943 23.6381 141.918 23.6123 139.834 23.6638C137.948 23.7153 137.675 23.6638 137.179 23.1228C136.633 22.5561 136.608 22.4015 136.534 16.5796C136.46 11.8396 136.509 10.6031 136.782 10.4228C136.956 10.294 138.147 10.1909 139.412 10.1909H141.72L141.645 9.46961L141.571 8.77407L139.09 8.64526L136.608 8.51646L136.534 6.24951C136.46 4.0856 136.435 4.00832 135.889 4.00832C135.417 4.00832 135.293 4.18864 135.144 4.96147Z" fill="white"/>
<path d="M6.88535 5.1418C5.71913 5.57973 5.22287 6.01766 5.22287 6.61016C5.22287 7.3057 5.52063 7.38299 6.86054 6.94505C7.58012 6.7132 8.62226 6.5844 9.41628 6.66168C11.1284 6.79049 11.6743 7.40875 11.6743 9.16048V10.4228L10.8803 10.1652C8.57264 9.49537 5.76876 10.3455 4.94993 12.0199C4.35442 13.2822 4.35442 14.4672 4.97474 15.5234C5.74395 16.8372 6.58759 17.2751 8.27488 17.2236C9.49072 17.1979 9.96217 17.0433 10.8306 16.425L11.8976 15.6264L12.4931 16.4508C13.0886 17.2494 13.0886 17.2494 13.7586 16.7857C14.3293 16.3993 14.4285 16.2189 14.2796 15.6522C14.1804 15.2658 14.0315 13.2049 13.9323 11.0925C13.7586 6.76473 13.5104 6.01766 11.8232 5.19332C10.781 4.6781 8.20044 4.65234 6.88535 5.1418ZM10.7562 11.6335C11.6246 11.7881 11.6743 11.8654 11.6743 12.7412C11.6743 13.8489 11.178 14.6733 10.1855 15.2143C8.47339 16.1417 6.71166 15.3431 6.71166 13.6686C6.71166 11.9942 8.27488 11.2213 10.7562 11.6335Z" fill="white"/>
<path d="M33.9317 5.32212C32.9144 5.88886 32.0211 7.15114 32.0211 8.07853C32.0211 9.10896 32.7158 10.4228 33.5347 10.938C33.9813 11.2213 35.1227 11.7108 36.0408 11.9942C38.5469 12.7928 39.068 14.0035 37.4303 15.1885C36.7108 15.7037 34.8498 15.7037 33.3858 15.2143C32.17 14.7763 31.7729 14.8536 31.7729 15.5749C31.7729 16.863 34.7505 17.7131 37.2815 17.1721C39.7379 16.6311 41.0282 14.3899 40.0605 12.3291C39.5394 11.2729 38.8447 10.8092 36.2889 9.90755C34.6016 9.28929 33.9317 8.59375 34.155 7.69212C34.3535 6.89353 35.4949 6.50712 37.1574 6.66169C37.9514 6.73897 38.8447 6.86777 39.1672 6.97082C39.6387 7.15114 39.7131 7.07386 39.7131 6.37832C39.7131 5.70854 39.5643 5.55397 38.7206 5.19332C37.3311 4.62658 35.0979 4.6781 33.9317 5.32212Z" fill="white"/>
<path d="M15.2966 5.2706C15.2221 5.37364 15.6191 7.04809 16.165 8.92863C16.7109 10.8349 17.4305 13.2822 17.7531 14.3899C18.0508 15.4719 18.4478 16.5538 18.6215 16.7599C18.9937 17.2494 20.2096 17.2751 20.6562 16.8114C20.8299 16.6054 21.4254 14.5187 21.9465 12.1487C22.6909 8.92863 22.9886 7.97548 23.1375 8.38766C23.2368 8.69679 23.733 10.6288 24.2045 12.6897C24.6759 14.7763 25.197 16.6054 25.3459 16.8114C25.6436 17.1721 26.7602 17.2494 27.2317 16.9402C27.4054 16.8372 27.9264 15.4204 28.4475 13.7974C28.9438 12.1745 29.7378 9.62418 30.1844 8.13005C30.6559 6.63592 30.9288 5.34788 30.8048 5.21908C30.6807 5.09027 30.2092 5.03875 29.7626 5.09027C28.8445 5.16756 28.919 4.90995 27.0332 12.3548L26.4376 14.6218L26.1151 13.5141C25.9414 12.8958 25.5692 11.3244 25.2962 10.0621C25.0233 8.77407 24.6511 7.12538 24.4278 6.37831C24.0804 5.03875 24.0556 5.03875 23.0879 5.03875C22.2691 5.03875 22.0457 5.14179 21.8472 5.60549C21.6735 6.09494 20.6562 10.4228 19.9614 13.7717C19.887 14.1066 19.7381 14.2869 19.6389 14.1581C19.5396 14.0293 19.0434 12.123 18.5223 9.93331C18.0012 7.74364 17.4553 5.73429 17.3313 5.47669C17.1079 5.01299 15.5447 4.83266 15.2966 5.2706Z" fill="white"/>
<path d="M54.4768 8.38765C53.8068 8.51646 52.7647 8.79983 52.194 9.03168C51.3503 9.36657 51.127 9.59841 51.127 10.0879C51.127 10.8349 51.4248 10.8607 53.3602 10.3197C55.0971 9.83026 57.8513 9.83026 58.9431 10.294C60.159 10.8349 60.556 11.8396 60.556 14.3384V16.425L59.886 16.2447C54.0053 14.6733 49.8615 16.8114 50.1841 21.2681C50.3578 23.8184 52.2436 25.6216 54.7745 25.6474C56.0648 25.6474 58.5213 24.8746 59.5138 24.1275C60.5312 23.4062 60.8041 23.432 60.8041 24.3594C60.8041 25.0549 60.8785 25.1322 61.5485 25.1322H62.3177L62.2433 17.9964C62.1688 11.2986 62.144 10.7834 61.6726 10.1394C60.5808 8.59374 57.4792 7.82092 54.4768 8.38765ZM59.9356 17.6615C60.556 17.9192 60.5808 17.9707 60.5063 20.0058L60.4319 22.1182L58.9431 22.891C57.8017 23.5093 57.0325 23.7153 55.5437 23.7926C53.7076 23.8957 53.6083 23.8699 52.9135 23.1744C51.0774 21.2423 52.0203 18.0737 54.6256 17.3782C55.6182 17.1206 59.0424 17.3009 59.9356 17.6615Z" fill="white"/>
<path d="M120.802 8.38765C118.618 8.7483 117.626 9.26352 117.626 10.0363C117.626 10.8092 117.775 10.8349 119.611 10.3197C121.621 9.75298 124.499 9.8045 125.492 10.4485C125.914 10.7061 126.41 11.1956 126.559 11.5047C126.931 12.226 127.204 15.9871 126.881 16.1932C126.757 16.2705 126.162 16.2189 125.541 16.0901C123.804 15.6522 120.604 15.7552 119.487 16.2189C117.452 17.1206 116.559 18.5374 116.534 20.9589C116.534 22.3243 116.658 22.7107 117.279 23.6381C118.122 24.8746 119.586 25.6216 121.249 25.6216C122.39 25.6474 124.698 24.9003 125.938 24.1017C126.956 23.432 127.005 23.4577 127.105 24.2821C127.154 24.8746 127.303 25.0291 127.998 25.0807L128.792 25.1579V18.6405C128.767 10.6804 128.569 9.83026 126.459 8.79983C125.417 8.28461 122.638 8.10428 120.802 8.38765ZM126.459 17.6615C127.03 17.8934 127.055 18.0222 127.055 19.9543V22.0151L125.467 22.8137C123.581 23.7926 121.1 24.1275 119.859 23.5865C118.47 22.994 117.949 20.8559 118.743 19.1042C119.164 18.2283 119.834 17.6873 120.976 17.3782C121.869 17.1206 125.616 17.3267 126.459 17.6615Z" fill="white"/>
<path d="M149.684 8.41342C146.161 9.13472 143.903 13.0761 144.275 17.7904C144.697 23.2259 147.054 25.6474 151.942 25.6474C154.423 25.6474 156.954 24.8746 157.227 24.0502C157.475 23.2001 157.054 23.0971 155.217 23.5865C151.148 24.72 148.046 23.8184 146.731 21.165C146.508 20.7271 146.285 19.6709 146.21 18.7693L146.086 17.1463H151.694H157.302L157.475 16.2189C157.699 14.9051 157.376 12.3291 156.83 11.1956C155.614 8.77407 152.984 7.74364 149.684 8.41342ZM153.853 10.4485C155.019 11.0668 155.838 12.767 155.838 14.5445V15.8583H150.999H146.161V14.8794C146.161 13.5398 147.252 11.3502 148.245 10.7319C149.957 9.62418 152.091 9.52113 153.853 10.4485Z" fill="white"/>
<path d="M71.7219 8.61951C68.2977 9.72722 66.7593 12.3033 66.7593 17.0175C66.7593 21.1908 67.8262 23.4835 70.4068 24.7715C71.6475 25.4156 72.1189 25.5186 73.9551 25.4928C76.6349 25.4928 78.0492 25.0034 78.0492 24.1018C78.0492 23.5608 77.95 23.4835 77.4289 23.535C77.0815 23.5865 75.692 23.6381 74.3025 23.6638C71.97 23.7153 71.7467 23.6638 70.8038 23.0198C70.1835 22.6076 69.588 21.8863 69.2158 21.0877C68.6947 20.0058 68.6203 19.5163 68.6203 16.8887C68.6203 13.6944 68.9676 12.5352 70.2827 11.3244C71.5482 10.1394 73.9551 9.75299 76.7589 10.294L77.9748 10.5258L77.8755 9.77875C77.8259 9.18625 77.6274 8.9544 76.9326 8.72255C75.9649 8.38766 72.6896 8.31038 71.7219 8.61951Z" fill="white"/>
<path d="M94.5498 16.863V25.1322H95.4183H96.2867L96.2371 16.9402L96.1627 8.77407L95.3686 8.69679L94.5498 8.61951V16.863Z" fill="white"/>
<path d="M99.7607 9.00591C99.7607 9.3408 101.001 12.6124 104.649 21.9121L105.865 25.0034L106.882 25.0807C107.527 25.1322 107.924 25.0291 108.023 24.8231C108.098 24.6427 108.768 22.9168 109.512 21.0105C110.257 19.1042 111.597 15.6264 112.515 13.3337C113.408 11.0153 114.152 9.00591 114.152 8.85135C114.152 8.72254 113.805 8.64526 113.358 8.69678C112.44 8.77407 112.316 8.95439 111.026 12.5094C109.537 16.6054 107.428 22.1439 107.155 22.6591C106.857 23.2259 106.733 22.891 103.607 14.5702C102.589 11.8138 101.647 9.36656 101.522 9.16048C101.25 8.6195 99.7607 8.4907 99.7607 9.00591Z" fill="white"/>
</svg>
