<svg width="75" height="58" viewBox="0 0 75 58" fill="none" xmlns="http://www.w3.org/2000/svg">
<path d="M29.9356 5.5866C29.5889 5.83052 29.4666 6.10625 29.4462 6.68952C29.436 6.98646 29.3952 7.03949 29.1811 7.03949C28.967 7.03949 28.9263 7.09251 28.9263 7.35764C28.9263 7.62276 28.967 7.67579 29.1811 7.67579H29.4258L29.4564 9.07565L29.487 10.4861L29.8132 10.5179L30.1394 10.5497L30.17 9.13928L30.2006 7.72881L30.5574 7.67579C30.8531 7.63337 30.9143 7.58034 30.9143 7.35764C30.9143 7.12433 30.8633 7.09251 30.537 7.0607C30.2006 7.02888 30.1496 6.98646 30.1496 6.77436C30.1496 6.18048 30.3943 5.92596 30.8939 5.96838C31.0264 5.98959 31.0672 5.91536 31.0672 5.67144C31.0672 5.3639 31.0468 5.34269 30.6696 5.34269C30.4351 5.34269 30.1496 5.43813 29.9356 5.5866Z" fill="white"/>
<path d="M12.3904 5.56539C12.1763 5.69265 12.1559 5.98959 12.3292 6.16987C12.5127 6.36076 12.9001 6.31834 13.0224 6.09564C13.155 5.83051 13.155 5.8093 12.9613 5.61841C12.7778 5.42752 12.635 5.40631 12.3904 5.56539Z" fill="white"/>
<path d="M6.49756 8.1106V10.5497L6.83399 10.5179L7.16022 10.4861L7.21119 8.68327L7.26217 6.88041L7.81269 8.31209C8.54671 10.2422 8.69963 10.5391 8.9545 10.5391C9.09723 10.5391 9.20937 10.4225 9.31132 10.1362C9.39288 9.92405 9.50502 9.64832 9.556 9.53167C9.60697 9.41501 9.84145 8.82113 10.0759 8.20604C10.3104 7.59095 10.5245 7.03949 10.5653 6.98646C10.5959 6.92283 10.6468 7.68639 10.6774 8.68327L10.7284 10.4861L11.0648 10.5179L11.3911 10.5497V8.1106V5.66084H10.9425C10.6978 5.66084 10.4531 5.72447 10.4022 5.7881C10.3512 5.86233 10.0148 6.66831 9.66814 7.56974C9.05645 9.13928 8.84236 9.58469 8.84236 9.27715C8.84236 9.09686 7.74132 6.20169 7.55782 5.89415C7.44567 5.71386 7.31314 5.66084 6.95632 5.66084H6.49756V8.1106Z" fill="white"/>
<path d="M32.0863 6.18048C31.8824 6.24411 31.8212 6.32895 31.8008 6.6365C31.7702 6.97586 31.7295 7.02888 31.495 7.0607C31.2809 7.08191 31.2197 7.14554 31.2197 7.35764C31.2197 7.56974 31.2809 7.63337 31.5052 7.65458L31.7804 7.68639V8.83173C31.7804 9.83921 31.811 10.0195 31.9945 10.2634C32.1882 10.5179 32.2698 10.5497 32.7388 10.5179C33.2179 10.4861 33.2587 10.4649 33.2893 10.2104C33.3199 9.96647 33.2893 9.93465 33.0752 9.97707C32.6164 10.0725 32.4941 9.78618 32.4941 8.67266V7.67579H32.9019C33.2893 7.67579 33.3097 7.65458 33.3097 7.35764C33.3097 7.0607 33.2893 7.03949 32.9019 7.03949C32.4941 7.03949 32.4941 7.03949 32.4941 6.62589C32.4941 6.14867 32.4431 6.09564 32.0863 6.18048Z" fill="white"/>
<path d="M14.9698 7.03949C14.5722 7.13493 14.1848 7.41066 13.8993 7.82426C13.5935 8.24846 13.5935 9.44682 13.8993 9.87102C14.2255 10.327 14.6843 10.5603 15.2654 10.5603C15.9077 10.5497 16.1829 10.4013 16.1829 10.0513C16.1829 9.8286 16.1524 9.78618 16.0096 9.86042C15.9077 9.91344 15.6324 9.94526 15.3979 9.94526C14.6231 9.95586 14.1848 9.21351 14.4498 8.36511C14.6537 7.7076 15.347 7.42127 16.0096 7.72881C16.1524 7.79244 16.1829 7.75002 16.1829 7.4849C16.1829 7.19856 16.132 7.14554 15.8057 7.05009C15.5916 6.98646 15.3979 6.94404 15.3674 6.94404C15.3368 6.95465 15.1635 6.99707 14.9698 7.03949Z" fill="white"/>
<path d="M20.067 7.0607C19.2107 7.31522 18.7825 7.97273 18.8539 8.94839C18.9252 9.98768 19.5267 10.571 20.5258 10.5604C21.4535 10.5498 22.0754 10.0089 22.1774 9.10747C22.2895 8.04697 21.8511 7.2728 21.0355 7.0501C20.5156 6.91223 20.536 6.91223 20.067 7.0607ZM20.9642 7.72882C21.2598 7.87729 21.4841 8.34391 21.4841 8.78932C21.4841 9.23473 21.2598 9.70135 20.9642 9.84982C20.5462 10.0831 20.3015 10.0407 19.9345 9.70135C19.6287 9.41501 19.5981 9.33017 19.5981 8.78932C19.5981 8.24846 19.6287 8.16362 19.9345 7.87729C20.3015 7.53793 20.5462 7.49551 20.9642 7.72882Z" fill="white"/>
<path d="M23.4312 7.0713C23.0031 7.24098 22.6055 7.7076 22.6055 8.05757C22.6055 8.42875 23.0948 8.90597 23.6148 9.05444C24.1143 9.19231 24.359 9.57409 24.1245 9.86042C24.0225 9.98768 23.8696 10.0195 23.472 9.97708C23.1968 9.95587 22.8807 9.89224 22.789 9.84982C22.6361 9.78619 22.6055 9.82861 22.6055 10.0513C22.6055 10.4013 22.8909 10.5604 23.5638 10.5604C24.4507 10.571 24.9503 10.1786 24.9503 9.48925C24.9503 9.12868 24.4813 8.66206 23.9104 8.46056C23.5026 8.3227 23.3293 8.05757 23.4822 7.80305C23.6148 7.59095 24.2366 7.50611 24.5425 7.67579C24.726 7.78184 24.7464 7.76063 24.7464 7.47429C24.7464 7.30461 24.7056 7.13493 24.6648 7.10312C24.4507 6.96525 23.7473 6.95465 23.4312 7.0713Z" fill="white"/>
<path d="M26.4997 7.09252C25.6943 7.35765 25.3579 7.87729 25.3579 8.86356C25.3579 10.0513 26.2652 10.7831 27.4275 10.5179C28.2838 10.327 28.8038 9.51046 28.6916 8.50299C28.5591 7.35765 27.5804 6.72135 26.4997 7.09252ZM27.6212 7.87729C27.9168 8.15302 27.9474 8.23786 27.9474 8.78932C27.9474 9.34078 27.9168 9.42562 27.6212 9.70135C27.4376 9.87103 27.2032 10.0089 27.091 10.0089C26.0817 10.0089 25.6841 8.46057 26.5201 7.76064C26.8463 7.48491 27.2439 7.52733 27.6212 7.87729Z" fill="white"/>
<path d="M12.3086 8.78932V10.5497L12.645 10.5179L12.9713 10.4861V8.78932V7.09251L12.645 7.0607L12.3086 7.02888V8.78932Z" fill="white"/>
<path d="M16.8349 7.17735C16.8145 7.25159 16.8044 8.02575 16.8145 8.89537L16.8451 10.4861L17.1816 10.5179L17.5078 10.5497V9.53167C17.5078 8.15302 17.7525 7.67579 18.4763 7.67579C18.7108 7.67579 18.7414 7.63337 18.7108 7.37885C18.67 6.97586 18.252 6.93344 17.8238 7.30461L17.5078 7.59095V7.31522C17.5078 7.08191 17.467 7.03949 17.2019 7.03949C17.0286 7.03949 16.8655 7.10312 16.8349 7.17735Z" fill="white"/>
<path d="M7.3237 12.6707C6.80376 12.7874 6.55909 13.1055 6.49792 13.7525C6.44694 14.2615 6.42655 14.3039 6.17168 14.3357C5.9474 14.3675 5.88623 14.4312 5.88623 14.6221C5.88623 14.813 5.9474 14.8766 6.17168 14.9084L6.44694 14.9402L6.47753 16.3401L6.50811 17.7505H6.85474H7.21155V16.3189V14.8872H7.56837C7.87422 14.8872 7.92519 14.8554 7.92519 14.6327C7.92519 14.41 7.86402 14.3675 7.59896 14.3357C7.29311 14.3039 7.26253 14.2721 7.23194 13.8903C7.19116 13.4131 7.27272 13.2964 7.74168 13.201C7.97616 13.148 8.08831 13.0631 8.1087 12.9041C8.14947 12.6495 7.85383 12.5541 7.3237 12.6707Z" fill="white"/>
<path d="M16.8451 13.0313C16.3047 13.2328 15.9785 13.657 15.9785 14.1767C15.9785 14.7493 16.264 15.1099 17.0184 15.5235C17.8136 15.9583 18.1194 16.234 18.1194 16.531C18.1194 17.0824 17.3548 17.3476 16.5902 17.0718C15.9785 16.8491 15.9785 16.8491 15.9785 17.2203C15.9785 17.6445 16.264 17.7824 17.1509 17.793C18.0277 17.8036 18.5374 17.5703 18.7719 17.0612C19.1287 16.2871 18.8331 15.6826 17.8034 15.1099C16.8757 14.5797 16.7737 14.4842 16.8145 14.1024C16.8553 13.6676 17.2019 13.4873 17.8646 13.5404C18.15 13.5722 18.4559 13.6252 18.5578 13.6676C18.7005 13.7313 18.7311 13.6888 18.7311 13.4131C18.7311 13.148 18.6699 13.0525 18.466 12.9783C18.099 12.8298 17.3242 12.851 16.8451 13.0313Z" fill="white"/>
<path d="M19.8327 13.4237C19.6084 13.4979 19.5575 13.5934 19.5269 13.9115C19.5065 14.2297 19.4453 14.3145 19.272 14.3357C18.9152 14.3888 18.9458 14.8872 19.2924 14.8872H19.5473V16.0431C19.5473 17.0294 19.5779 17.2309 19.7512 17.4642C19.9856 17.7718 20.3629 17.899 20.7808 17.8036C21.0153 17.7506 21.0765 17.6763 21.0765 17.443C21.0765 17.1779 21.0459 17.1567 20.7808 17.1991C20.3527 17.2627 20.2507 16.987 20.2813 15.8629L20.3119 14.9402L20.6993 14.9084C21.0153 14.8766 21.0765 14.8342 21.0765 14.6221C21.0765 14.41 21.0153 14.3676 20.6993 14.3357C20.3323 14.3039 20.3119 14.2827 20.2813 13.8797C20.2405 13.3601 20.1793 13.2964 19.8327 13.4237Z" fill="white"/>
<path d="M27.7843 13.4237C27.5601 13.4979 27.5091 13.5934 27.4785 13.9115C27.4479 14.2509 27.4071 14.3039 27.1727 14.3357C26.9484 14.3676 26.8872 14.4312 26.8872 14.6221C26.8872 14.813 26.9484 14.8766 27.1727 14.9084L27.4479 14.9402L27.4989 16.1598C27.5295 16.8279 27.5906 17.443 27.6314 17.5066C27.7742 17.7399 28.4368 17.8884 28.7529 17.7612C29.1403 17.6021 29.1403 17.2203 28.7427 17.2203C28.2737 17.2203 28.2125 17.0612 28.2125 15.9265V14.8872H28.6203C28.9873 14.8872 29.0281 14.8554 29.0281 14.6327C29.0281 14.41 28.9771 14.3676 28.6509 14.3357C28.2839 14.3039 28.2635 14.2827 28.2329 13.8797C28.1921 13.3601 28.131 13.2964 27.7843 13.4237Z" fill="white"/>
<path d="M9.09749 14.3994C8.0984 14.8554 7.80275 16.478 8.57755 17.2839C9.41353 18.1535 10.9224 17.9096 11.3505 16.8279C11.5442 16.3507 11.5238 15.5447 11.3098 15.0993C10.9427 14.3357 9.93346 14.0176 9.09749 14.3994ZM10.4636 15.0887C10.7083 15.3432 10.8306 15.9265 10.7389 16.4249C10.6165 17.093 9.81112 17.4536 9.281 17.0612C8.80184 16.7113 8.74067 15.725 9.15866 15.1629C9.33197 14.9402 9.45431 14.8872 9.82132 14.8872C10.1272 14.8872 10.3311 14.9508 10.4636 15.0887Z" fill="white"/>
<path d="M13.1239 14.5903L12.8181 14.9296V14.6433C12.8181 14.3888 12.7773 14.3569 12.4613 14.3569H12.0942L12.1248 16.0219L12.1554 17.6975L12.4918 17.7293L12.8181 17.7612V16.7961C12.8181 15.4387 13.1341 14.813 13.7662 14.9084C13.9497 14.9402 13.9905 14.8872 13.9905 14.6221C13.9905 14.3569 13.9497 14.3039 13.7152 14.2721C13.5011 14.2403 13.3584 14.3251 13.1239 14.5903Z" fill="white"/>
<path d="M22.0239 14.3994C21.769 14.5266 21.6874 14.6221 21.6874 14.8448C21.6874 15.0675 21.718 15.1099 21.8709 15.0463C21.9627 15.0039 22.238 14.919 22.4724 14.8554C22.8292 14.7705 22.9414 14.7811 23.1657 14.9296C23.339 15.0463 23.4205 15.1841 23.4002 15.3432C23.3798 15.5235 23.2574 15.5871 22.6865 15.6932C21.8404 15.8629 21.6467 15.9689 21.4835 16.3613C21.0961 17.3582 22.0137 18.1641 22.9618 17.6551C23.3084 17.4642 23.3696 17.4536 23.4511 17.5915C23.4919 17.6763 23.6754 17.7505 23.8385 17.7505H24.1546L24.1138 16.2658C24.0832 14.8978 24.0628 14.7705 23.8589 14.5478C23.5633 14.2509 22.5234 14.1661 22.0239 14.3994ZM23.4205 16.4249C23.4205 16.9021 23.1249 17.2203 22.6763 17.2203C22.2889 17.2203 22.0952 17.0612 22.0952 16.7325C22.0952 16.4355 22.3195 16.2446 22.7885 16.1492C23.4104 16.0325 23.4205 16.0325 23.4205 16.4249Z" fill="white"/>
<path d="M25.8675 14.516C25.5821 14.8342 25.4597 14.8554 25.4597 14.569C25.4597 14.3994 25.3884 14.3569 25.1029 14.3569H24.7461V16.0537V17.7505H25.1029H25.4597V16.9234C25.4699 15.428 25.7656 14.8023 26.4078 14.9296C26.6831 14.9826 26.6933 14.972 26.6627 14.6433C26.6219 14.1873 26.2243 14.1236 25.8675 14.516Z" fill="white"/>
<path d="M34.3808 14.3569C34.2585 14.3994 34.1055 14.516 34.0342 14.6115C33.8507 14.8448 33.7181 14.8236 33.7181 14.569C33.7181 14.3994 33.6468 14.3569 33.4123 14.3569H33.1064V16.8491V19.3413H33.4123H33.7181V18.3868C33.7181 17.6445 33.7487 17.4324 33.8609 17.4324C33.9322 17.4324 34.0546 17.496 34.1157 17.5809C34.5133 18.0793 35.6449 17.7505 36.012 17.0506C36.2872 16.5098 36.2974 15.2796 36.0222 14.8554C35.6755 14.3251 34.9619 14.1024 34.3808 14.3569ZM35.1046 14.972C35.2677 15.0781 35.5532 15.6932 35.5532 15.9371C35.5532 16.2871 35.2372 17.0082 35.0333 17.1142C34.6968 17.3051 34.2788 17.2309 34.0138 16.9446C33.8099 16.7219 33.7691 16.5628 33.7691 16.0537C33.7793 15.269 34.0546 14.8872 34.6255 14.8872C34.8294 14.8872 35.0435 14.9296 35.1046 14.972Z" fill="white"/>
<path d="M37.235 14.41C36.817 14.6327 36.6743 14.866 36.6743 15.2796C36.6743 15.7144 36.919 15.9795 37.6428 16.3189C38.1016 16.531 38.2035 16.6158 38.2035 16.8385C38.2035 16.987 38.1526 17.1355 38.1016 17.1673C37.9181 17.2839 37.1127 17.2415 36.8782 17.1142C36.6743 16.9976 36.6641 17.0188 36.6947 17.3476C36.7253 17.6657 36.7559 17.7081 37.1841 17.793C37.7244 17.899 38.4278 17.7293 38.7235 17.4218C38.9274 17.2097 38.9885 16.5522 38.8254 16.2871C38.7846 16.2128 38.4482 15.9901 38.0914 15.8098C37.6224 15.5659 37.4287 15.4068 37.4083 15.2266C37.3574 14.8978 37.8059 14.7281 38.387 14.866C38.8152 14.9614 38.8152 14.9614 38.8152 14.6751C38.8152 14.5054 38.7439 14.3569 38.6521 14.3145C38.3565 14.1979 37.5409 14.2509 37.235 14.41Z" fill="white"/>
<path d="M29.5584 15.7886C29.5889 17.1885 29.5991 17.2203 29.8744 17.5066C30.2414 17.899 30.9041 17.9202 31.3628 17.5597C31.6687 17.3264 31.6789 17.3264 31.6789 17.5385C31.6789 17.7081 31.74 17.7506 32.0357 17.7506H32.3925V16.0537V14.3569H32.0357H31.6789V15.5129C31.6789 16.5098 31.6483 16.7007 31.4648 16.9446C31.3119 17.1461 31.1589 17.2203 30.9143 17.2203C30.3536 17.2203 30.2516 16.9552 30.2516 15.5553V14.3569H29.8846H29.5176L29.5584 15.7886Z" fill="white"/>
<path d="M45.2375 25.418C45.2375 26.7224 45.2171 27.8147 45.1865 27.8465C45.1559 27.8677 44.9316 27.698 44.687 27.4435C44.0957 26.8603 43.382 26.68 42.3523 26.8603C41.1188 27.0724 40.2216 27.8783 39.6915 29.2464C39.4162 29.9675 39.3959 32.3855 39.6609 33.1066C40.2624 34.7292 41.6387 35.5458 43.2597 35.2382C43.9325 35.111 44.3301 34.8989 44.7685 34.411C44.9418 34.2307 45.1049 34.0823 45.1559 34.0823C45.1967 34.0823 45.2375 34.3156 45.2375 34.6125V35.1428H46.4099H47.5823V29.0979V23.0531H46.4099H45.2375V25.418ZM44.6768 29.0555C45.1661 29.5645 45.2375 29.7978 45.2375 30.8796C45.2375 32.0885 45.1151 32.5233 44.6054 33.0218C43.9529 33.6899 43.0966 33.7217 42.4441 33.1172C41.5164 32.2688 41.5368 29.9463 42.4849 29.0555C42.8723 28.6949 42.9335 28.6737 43.6063 28.6737C44.2792 28.6737 44.3301 28.6949 44.6768 29.0555Z" fill="white"/>
<path d="M6.49756 29.4161V35.1428H7.72093H8.94431L8.9647 32.8839L8.99528 30.6356L10.759 30.6038L12.5125 30.5826V29.5751V28.5677H10.7284H8.94431V27.083V25.5983H10.8813H12.8183V24.6438V23.6894H9.65794H6.49756V29.4161Z" fill="white"/>
<path d="M16.4889 26.8815C13.9605 27.3163 12.5944 30.116 13.5935 32.8309C14.1135 34.2413 15.1431 35.0261 16.7947 35.2594C17.5185 35.3549 17.804 35.3549 18.5074 35.217C20.3833 34.8458 21.4435 33.7005 21.6984 31.7704C22.1674 28.3874 19.9347 26.2982 16.4889 26.8815ZM18.589 28.8752C18.7725 28.9919 19.0172 29.2994 19.1497 29.5963C19.3536 30.0205 19.3944 30.2645 19.3944 31.0704C19.3842 32.3006 19.1191 32.9263 18.4361 33.3081C17.6511 33.7323 16.5602 33.5202 16.1116 32.8521C15.3266 31.6643 15.5203 29.607 16.4787 28.9282C16.9578 28.5889 18.0996 28.5677 18.589 28.8752Z" fill="white"/>
<path d="M35.1963 26.9133C34.6356 27.083 34.1258 27.4435 33.82 27.8783C33.6772 28.0798 33.5243 28.2283 33.4632 28.2071C33.4122 28.1965 33.351 27.9101 33.3306 27.5814L33.3 26.9769H32.1888H31.0674V31.0598V35.1428H32.1786H33.2797L33.351 34.0929C33.3918 33.5202 33.3918 32.7142 33.351 32.3006C33.2389 31.081 33.3816 29.8297 33.6976 29.3312C34.0137 28.8116 34.2787 28.6737 34.9924 28.6737C35.4206 28.6737 35.5939 28.7267 35.7876 28.907C36.2361 29.3418 36.2973 29.7236 36.3483 32.5127L36.3891 35.1428H37.5105H38.6319L38.5911 31.9294C38.5402 28.3025 38.53 28.1965 37.8265 27.4753C37.4595 27.083 37.3474 27.0193 36.858 26.8921C36.2769 26.733 35.7366 26.7436 35.1963 26.9133Z" fill="white"/>
<path d="M51.2727 26.8921C49.8761 27.2102 48.6833 28.5465 48.408 30.1054C48.0308 32.237 48.724 34.0823 50.1921 34.8564C51.1708 35.3761 53.1996 35.4503 54.5147 35.0155C55.0856 34.8352 55.1264 34.761 55.1264 33.902C55.1264 33.1808 55.106 33.1172 54.9531 33.1808C54.0559 33.5944 53.6175 33.6793 52.7204 33.6369C51.9558 33.605 51.7213 33.552 51.4461 33.3505C50.9669 33.0112 50.763 32.693 50.6814 32.184L50.6101 31.7492L53.1996 31.728L55.789 31.6961L55.7992 31.1659C55.8298 29.713 55.4832 28.504 54.8409 27.7935C54.0763 26.9557 52.5981 26.5845 51.2727 26.8921ZM53.118 28.6949C53.3933 28.96 53.5054 29.1721 53.587 29.5751C53.6379 29.8615 53.6583 30.1372 53.6379 30.1796C53.6074 30.222 52.9243 30.2645 52.1087 30.2645C50.6713 30.2645 50.6407 30.2645 50.6407 30.0312C50.6407 29.6282 51.0587 28.8858 51.4359 28.6207C51.9966 28.2177 52.6388 28.2495 53.118 28.6949Z" fill="white"/>
<path d="M64.71 26.9133C63.4866 27.1784 62.6302 27.9632 62.5181 28.9388C62.4162 29.7766 62.5385 30.3387 62.9361 30.7841C63.2929 31.1977 64.3022 31.7704 64.9139 31.9082C65.4644 32.0249 66.1271 32.4809 66.1984 32.7672C66.4125 33.6475 64.9343 34.0505 63.4866 33.5096C63.1196 33.3823 62.7424 33.2339 62.6506 33.1915C62.4875 33.1172 62.4671 33.1915 62.4671 34.0186C62.4671 35.1004 62.406 35.0473 63.9454 35.2382C64.7813 35.3443 65.128 35.3337 65.8416 35.2064C66.3208 35.1216 66.8611 34.9837 67.0242 34.8883C67.9213 34.411 68.4209 33.6369 68.4209 32.7036C68.4311 31.5053 67.8194 30.8477 66.1169 30.222C65.2503 29.8933 65.0158 29.766 64.8731 29.5115C64.3328 28.5465 65.7397 28.0268 67.2995 28.6101L67.9825 28.8646L67.9519 27.9526L67.9213 27.0299L67.1567 26.9027C66.2188 26.7542 65.444 26.7542 64.71 26.9133Z" fill="white"/>
<path d="M60.4788 26.9557C60.0812 27.0936 59.7142 27.4329 59.388 27.9632L59.0515 28.5146L59.0006 27.7723L58.9496 27.0299L57.8078 26.9981L56.6558 26.9663V31.0598V35.1534L57.8078 35.1216L58.9496 35.0897L59.0006 32.7566C59.0413 31.378 59.1127 30.2645 59.1841 30.0418C59.4797 29.1403 60.5808 28.6313 61.4881 28.9919L61.7532 29.0979V27.9844V26.8709L61.223 26.8815C60.9274 26.8921 60.591 26.9239 60.4788 26.9557Z" fill="white"/>
<path d="M22.5747 27.0511C22.5543 27.1042 22.5441 28.4192 22.5543 29.9993C22.5747 33.4566 22.646 33.8489 23.4107 34.6231C23.8286 35.0473 23.9918 35.1322 24.5525 35.2382C25.0214 35.323 25.3579 35.3337 25.7351 35.2594C26.4589 35.1109 26.7647 34.9307 27.2643 34.3686C27.4988 34.1035 27.7129 33.9232 27.7434 33.955C27.774 33.9868 27.8046 34.2625 27.8046 34.5807V35.1428H28.977H30.1494V31.0598V26.9769H28.977H27.8046V29.5751C27.8046 32.0037 27.7944 32.2052 27.5905 32.6612C27.0706 33.7959 25.5923 33.8489 25.0622 32.7566C24.8583 32.3324 24.8481 32.1415 24.8481 29.6388V26.9769H23.7369C23.115 26.9769 22.5951 27.0087 22.5747 27.0511Z" fill="white"/>
<path d="M25.46 43.2026V49.2474H26.6324H27.8048V48.8232C27.8048 48.346 27.9577 48.2718 28.2329 48.6111C28.3247 48.7172 28.6 48.9399 28.8242 49.099C29.2015 49.3641 29.334 49.3959 30.1802 49.3959C31.2812 49.4065 31.8215 49.1838 32.4842 48.4839C34.1153 46.7234 34.0644 42.8208 32.372 41.4846C31.9133 41.124 31.3526 40.9543 30.6083 40.9437C29.65 40.9331 29.0995 41.1346 28.498 41.7285C28.2024 42.0148 27.9271 42.2481 27.8863 42.2481C27.8455 42.2481 27.8048 41.1028 27.8048 39.7029V37.1577H26.6324H25.46V43.2026ZM30.2719 42.8738C30.8122 43.1071 31.0161 43.4147 31.2302 44.2737C31.4035 44.9524 31.3729 45.4402 31.0977 46.3098C30.6899 47.6355 29.232 48.0915 28.3655 47.1582C27.8863 46.6492 27.7742 46.1932 27.815 44.9842C27.8557 44.0828 27.8863 43.9343 28.1412 43.5419C28.447 43.0859 29.0995 42.6829 29.5583 42.6723C29.701 42.6723 30.0272 42.7572 30.2719 42.8738Z" fill="white"/>
<path d="M6.49756 43.5207V49.2474H7.72093H8.94431L8.9647 46.8931L8.99528 44.5282H11.2891H13.5829L13.6135 46.8931L13.6339 49.2474H14.8573H16.0807V43.5207V37.794H14.8573H13.6339L13.6135 40.0953L13.5829 42.4072H11.2891H8.99528L8.9647 40.0953L8.94431 37.794H7.72093H6.49756V43.5207Z" fill="white"/>
<path d="M17.0184 44.0722C17.0694 47.6779 17.1203 47.9854 17.834 48.7278C18.3845 49.3005 18.6903 49.4065 19.8219 49.3959C20.6477 49.3853 21.2186 49.1096 21.7692 48.4521C21.9425 48.2506 22.1362 48.0809 22.1973 48.0809C22.2585 48.0809 22.2993 48.3354 22.2993 48.6642V49.2474H23.4207H24.5421V45.1645V41.0816H23.4207H22.2993V43.6586C22.2993 46.1189 22.2891 46.2568 22.075 46.7022C21.7386 47.3597 21.3817 47.6037 20.7191 47.6037C19.5671 47.6037 19.2205 46.8507 19.2612 44.4752C19.2714 43.6904 19.2714 42.5981 19.2612 42.0572L19.2408 41.0816H18.1092H16.9878L17.0184 44.0722Z" fill="white"/>
</svg>
