<svg width="146" height="86" viewBox="0 0 146 86" fill="none" xmlns="http://www.w3.org/2000/svg">
<path d="M3.15234 30.6273V39.7141L8.34198 39.8358L13.4926 39.9575L13.6877 50.7075L13.8828 61.4575H22.6622H31.4417L31.6368 60.2811L31.8319 59.1453L32.5733 59.9972C33.5878 61.1736 35.3437 61.133 36.1241 59.8755C36.8654 58.7396 36.4752 57.5226 35.1096 56.7924C34.4852 56.4273 34.056 56.5085 32.9635 57.1575L31.6368 57.9689V55.9406V53.9123L32.9635 54.967C34.2511 55.9811 34.3682 56.0217 35.2656 55.3726C35.8119 55.0075 36.3192 54.399 36.3972 54.0339C36.6313 53.1415 36.085 51.5189 35.5388 51.5189C35.3437 51.5189 35.1486 51.316 35.1486 51.1132C35.1486 50.8698 35.929 50.7075 36.9045 50.7075C37.88 50.7075 38.6604 50.8698 38.6604 51.1132C38.6604 51.316 38.4653 51.5189 38.2702 51.5189C37.7239 51.5189 37.1776 53.1415 37.4117 54.0339C37.4898 54.4396 38.036 55.0481 38.6213 55.3321C39.5188 55.8189 39.7529 55.8189 40.6894 55.0887C42.0161 54.1151 42.1331 52.6141 40.9235 51.7623L40.1041 51.1538L41.1186 50.7481L42.1721 50.3019V41.1745V32.0472H36.9045H31.6368V26.7736V21.5H17.3946H3.15234V30.6273ZM20.7113 24.7453C21.8038 25.8811 21.8038 29.4915 20.6722 30.9924C19.9309 31.966 19.6577 32.0472 16.8093 32.0472H13.7267L13.6096 34.5623L13.4926 37.1179H9.59061H5.68863L5.57157 30.5056L5.49353 23.9339H12.7122C19.4236 23.9339 19.9699 23.9745 20.7113 24.7453ZM29.2176 27.1792C29.4127 31.966 29.3346 32.0472 26.3691 32.0472H23.8328V27.9906V23.8934L26.4862 24.0151L29.1005 24.1368L29.2176 27.1792ZM29.1005 35.9009V37.1179L22.5842 37.2396L16.0289 37.3207V35.9009V34.4811L22.5842 34.5623L29.1005 34.684V35.9009ZM39.6358 35.9009V37.1179L35.6558 37.2396L31.6368 37.3613V35.9009V34.4406L35.6558 34.5623L39.6358 34.684V35.9009ZM29.2176 41.2556C29.3736 42.9594 28.9834 43.0406 21.8818 42.9189L16.224 42.7972L16.1069 41.2556L15.9899 39.7547L22.5452 39.8358L29.1005 39.9575L29.2176 41.2556ZM39.6358 44.0141V48.0707L35.6558 48.1924L31.6368 48.3141V46.8538V45.434H34.3682H37.0996V44.217C37.0996 43.0406 37.0996 43.0406 34.4852 42.9189L31.8319 42.7972L31.7148 41.2556L31.5978 39.7141L35.6168 39.8358L39.6358 39.9575V44.0141ZM29.1005 46.8538V48.0707L22.5842 48.1924L16.0289 48.2736V46.8538V45.434L22.5842 45.5151L29.1005 45.6368V46.8538ZM28.2811 51.2349C29.0615 51.8434 29.5687 54.8858 29.1395 56.549C28.6323 58.6585 28.164 58.8207 21.8428 58.8207H16.0289V54.7641V50.7075H21.8038C25.9399 50.7075 27.7738 50.8698 28.2811 51.2349ZM33.5878 50.9915C33.5878 51.1943 33.1195 51.6406 32.6123 52.0462C31.6368 52.7764 31.6368 52.7764 31.6368 51.7217C31.6368 50.9104 31.8319 50.7075 32.6123 50.7075C33.1586 50.7075 33.5878 50.8292 33.5878 50.9915Z" fill="white"/>
<path d="M13.688 27.9906C13.688 29.0858 13.805 29.2075 14.8586 29.2075C15.9121 29.2075 16.0292 29.0858 16.0292 27.9906C16.0292 26.8953 15.9121 26.7736 14.8586 26.7736C13.805 26.7736 13.688 26.8953 13.688 27.9906Z" fill="white"/>
<path d="M18.7607 54.7641C18.7607 55.8594 18.8778 55.9811 19.9313 55.9811C20.9849 55.9811 21.1019 55.8594 21.1019 54.7641C21.1019 53.6689 20.9849 53.5472 19.9313 53.5472C18.8778 53.5472 18.7607 53.6689 18.7607 54.7641Z" fill="white"/>
<path d="M45.2939 35.9415C45.2939 38.8622 45.411 39.7953 45.8012 39.6736C46.0353 39.5519 46.3475 38.8622 46.4645 38.0915C46.6596 36.7934 46.7767 36.7122 48.4155 36.5094C50.1324 36.3066 50.1714 36.266 50.2885 34.7651C50.4836 32.5745 49.8983 32.0472 47.401 32.0472H45.2939V35.9415ZM49.1179 34.3594C49.0398 35.2924 48.8057 35.5358 47.7522 35.617C46.5426 35.7387 46.4645 35.6575 46.4645 34.5217C46.4645 33.3453 46.5816 33.2641 47.8693 33.2641C49.1569 33.2641 49.2349 33.3453 49.1179 34.3594Z" fill="white"/>
<path d="M51.147 32.4528C51.147 32.6557 51.4201 32.8585 51.7323 32.8585C52.0444 32.8585 52.3176 32.6557 52.3176 32.4528C52.3176 32.2094 52.0444 32.0472 51.7323 32.0472C51.4201 32.0472 51.147 32.2094 51.147 32.4528Z" fill="white"/>
<path d="M53.566 35.7792C53.6441 37.9698 53.8392 39.5519 54.0733 39.5519C54.3074 39.5519 54.5025 37.9698 54.5805 35.7792C54.6586 32.6151 54.5805 32.0472 54.0733 32.0472C53.566 32.0472 53.488 32.6151 53.566 35.7792Z" fill="white"/>
<path d="M67.1455 32.4528C67.1455 32.6557 67.4186 32.8585 67.7308 32.8585C68.043 32.8585 68.3161 32.6557 68.3161 32.4528C68.3161 32.2094 68.043 32.0472 67.7308 32.0472C67.4186 32.0472 67.1455 32.2094 67.1455 32.4528Z" fill="white"/>
<path d="M72.4909 32.2905C72.1007 32.7368 72.1787 38.6594 72.6079 39.349C73.2323 40.4038 73.4664 39.5113 73.4664 35.8604C73.4664 32.5745 73.1932 31.5604 72.4909 32.2905Z" fill="white"/>
<path d="M107.414 32.4934C107.492 32.7368 107.726 32.8991 107.921 32.8991C108.116 32.8991 108.35 32.7368 108.428 32.4934C108.507 32.25 108.272 32.0472 107.921 32.0472C107.57 32.0472 107.336 32.25 107.414 32.4934Z" fill="white"/>
<path d="M139.722 33.0613C139.722 33.9538 139.566 34.0755 138.24 34.0755C136.328 34.0755 135.82 34.6434 135.82 36.7528C135.82 38.8623 136.796 39.7547 139.02 39.7547H140.503V35.9009C140.503 33.5887 140.347 32.0472 140.112 32.0472C139.917 32.0472 139.722 32.4934 139.722 33.0613ZM139.722 36.7123C139.722 38.3349 139.137 38.7811 137.576 38.3755C136.835 38.1726 136.601 37.8481 136.601 36.9557C136.601 35.4953 136.835 35.2924 138.435 35.2924C139.644 35.2924 139.722 35.3736 139.722 36.7123Z" fill="white"/>
<path d="M104.331 33.1424C104.175 33.5481 103.902 33.9943 103.668 34.1566C103.356 34.3594 103.395 34.6028 103.746 34.9679C103.98 35.2113 104.214 36.1849 104.214 37.1179C104.214 38.8217 104.721 39.7547 105.658 39.7547C105.931 39.7547 106.165 39.4707 106.165 39.1462C106.165 38.8217 106.009 38.5377 105.775 38.5377C105.58 38.5377 105.385 37.8075 105.385 36.9151C105.385 36.0226 105.58 35.2924 105.775 35.2924C106.009 35.2924 106.165 35.0085 106.165 34.684C106.165 34.3594 106.009 34.0755 105.775 34.0755C105.58 34.0755 105.385 33.8321 105.385 33.5075C105.385 32.5745 104.643 32.3311 104.331 33.1424Z" fill="white"/>
<path d="M51.3032 34.6434C50.9521 35.5764 51.3032 39.5519 51.7325 39.4707C52.2787 39.3085 52.4738 34.0755 51.9276 34.0755C51.6934 34.0755 51.4203 34.3189 51.3032 34.6434Z" fill="white"/>
<path d="M55.9073 34.5622C56.0244 34.8462 56.7267 35.1302 57.5071 35.2113C59.4581 35.3736 59.4581 36.4283 57.5071 36.5905C56.1414 36.7122 56.0244 36.8339 55.9073 38.0104C55.7902 39.1056 55.9463 39.349 56.7267 39.5519C57.273 39.7141 58.2095 39.7547 58.7948 39.6736C59.8483 39.5519 59.9263 39.4302 60.0434 37.4019C60.1214 36.1443 59.9654 34.9679 59.6922 34.6434C59.1069 33.9132 55.6732 33.8321 55.9073 34.5622ZM58.9508 37.9292C58.9508 38.3349 58.5606 38.5377 57.7802 38.5377C56.9998 38.5377 56.6096 38.3349 56.6096 37.9292C56.6096 37.5236 56.9998 37.3207 57.7802 37.3207C58.5606 37.3207 58.9508 37.5236 58.9508 37.9292Z" fill="white"/>
<path d="M61.4483 34.6434C61.0971 35.5764 61.4483 39.5519 61.8775 39.4707C62.1116 39.3896 62.3067 38.3349 62.3847 37.1179C62.5018 34.8868 62.5408 34.8462 63.5553 34.9679C64.4528 35.0896 64.6089 35.2924 64.7259 36.5094C64.9991 40.3226 65.9745 40.7689 65.9745 37.1179C65.9745 35.3736 65.8185 34.8462 65.2332 34.4811C64.1016 33.8726 61.6824 33.9538 61.4483 34.6434Z" fill="white"/>
<path d="M67.223 36.7934C67.3791 40.2415 68.1205 40.2821 68.1205 36.834C68.1205 35.1707 67.9644 34.2783 67.6132 34.1566C67.223 34.0349 67.145 34.6434 67.223 36.7934Z" fill="white"/>
<path d="M74.7149 34.6434C74.3637 35.5358 74.7149 39.5519 75.1441 39.5519C75.3782 39.5519 75.5733 38.6189 75.6513 37.5236C75.8074 35.1302 76.1196 34.684 77.4462 35.049C78.3827 35.2924 78.4608 35.4953 78.4608 37.5236C78.4608 38.7406 78.6559 39.7547 78.851 39.7547C79.3972 39.7547 79.3192 35.1302 78.7729 34.5623C78.1096 33.8726 74.988 33.9132 74.7149 34.6434Z" fill="white"/>
<path d="M80.6457 34.7245C80.3336 35.5358 80.3336 38.2943 80.6457 39.1057C81.075 40.2821 81.5822 39.3085 81.5822 37.3208C81.5822 35.1302 81.9334 34.684 83.3381 35.0491C84.1575 35.2519 84.2746 35.5764 84.3916 37.4425C84.5477 39.917 85.2501 40.1198 85.4062 37.6858C85.6013 35.2113 84.7038 34.0755 82.5967 34.0755C81.3871 34.0755 80.8018 34.2783 80.6457 34.7245Z" fill="white"/>
<path d="M86.7333 34.5623C86.031 35.2924 86.148 38.3755 86.8894 39.1057C87.2016 39.4707 88.099 39.7547 88.8014 39.7547C89.5037 39.7547 90.4012 39.4707 90.7133 39.1057C91.4547 38.3755 91.5718 35.2924 90.8694 34.5623C90.2451 33.9132 87.3576 33.9132 86.7333 34.5623ZM90.4792 36.4283C90.6743 37.7264 89.8549 38.6189 88.6453 38.4566C87.7869 38.3349 87.6308 38.0915 87.5137 36.7934L87.3967 35.2519L88.8794 35.3736C90.089 35.4547 90.4012 35.6575 90.4792 36.4283Z" fill="white"/>
<path d="M92.313 34.7651C92.469 35.1708 92.8592 36.3066 93.1714 37.3208C93.5226 38.3349 93.9518 39.3085 94.1079 39.5519C94.6151 40.0792 95.4736 39.0651 96.1369 37.1179C96.4491 36.2255 96.8393 35.1708 96.9953 34.7651C97.1904 34.3189 97.1124 34.0755 96.7222 34.0755C96.41 34.0755 95.8248 34.9274 95.3565 35.9821L94.5761 37.9292L93.7567 35.9821C93.2885 34.9274 92.7422 34.0755 92.469 34.0755C92.1959 34.0755 92.1569 34.3594 92.313 34.7651Z" fill="white"/>
<path d="M98.4386 34.5623C98.5557 34.8462 99.258 35.1302 100.038 35.2113C102.106 35.4141 102.028 36.5094 99.9604 36.5094C98.2045 36.5094 97.5802 37.4424 98.3606 38.9434C98.7117 39.6736 99.1019 39.7953 100.624 39.6736L102.458 39.5519L102.575 37.4019C102.653 36.1443 102.497 34.9679 102.224 34.6434C101.638 33.9132 98.2045 33.8321 98.4386 34.5623ZM101.482 37.9292C101.482 38.3349 101.092 38.5377 100.312 38.5377C99.5312 38.5377 99.141 38.3349 99.141 37.9292C99.141 37.5236 99.5312 37.3208 100.312 37.3208C101.092 37.3208 101.482 37.5236 101.482 37.9292Z" fill="white"/>
<path d="M107.413 36.7934C107.569 40.2415 108.31 40.2821 108.31 36.834C108.31 35.1707 108.154 34.2783 107.803 34.1566C107.413 34.0349 107.335 34.6434 107.413 36.7934Z" fill="white"/>
<path d="M110.067 34.4811C109.169 35.0896 109.286 38.4566 110.223 39.1868C111.315 39.9981 113.071 39.8764 113.969 38.9434C114.905 37.9698 115.022 35.617 114.125 34.7245C113.461 33.9943 111.003 33.8726 110.067 34.4811ZM113.383 36.9151C113.383 38.2538 113.305 38.3349 112.018 38.3349C110.73 38.3349 110.652 38.2538 110.535 36.7934L110.418 35.2519L111.901 35.3736C113.305 35.4953 113.383 35.5764 113.383 36.9151Z" fill="white"/>
<path d="M115.686 34.6434C115.334 35.5764 115.686 39.5519 116.115 39.4707C116.349 39.3896 116.544 38.3349 116.622 37.1179C116.739 35.1302 116.817 34.8868 117.598 34.8868C118.924 34.8868 119.431 35.6575 119.431 37.6047C119.431 38.5783 119.627 39.3491 119.822 39.3491C120.368 39.3491 120.29 35.1302 119.744 34.5623C119.08 33.8726 115.959 33.9132 115.686 34.6434Z" fill="white"/>
<path d="M124.972 34.5623C125.089 34.8462 125.791 35.1302 126.611 35.2113C128.523 35.3736 128.25 36.2255 126.221 36.5094C125.011 36.6717 124.66 36.9151 124.582 37.6453C124.387 39.0651 125.167 39.7547 127.079 39.7547H128.796V37.4019C128.796 36.1038 128.601 34.8462 128.328 34.5623C127.703 33.9132 124.777 33.9132 124.972 34.5623ZM127.664 37.9292C127.664 38.1321 127.391 38.416 127.04 38.4566C126.143 38.6594 125.206 38.2132 125.479 37.6858C125.791 37.1585 127.664 37.3613 127.664 37.9292Z" fill="white"/>
<path d="M130.202 34.7245C129.85 35.6981 129.928 38.6594 130.358 39.349C130.67 39.8764 130.748 39.8764 130.904 39.349C131.021 39.0245 131.177 37.9292 131.216 36.9151C131.294 35.5358 131.489 35.049 132.036 34.9679C133.245 34.7245 133.869 35.6575 133.869 37.767C133.869 38.8623 134.065 39.7547 134.26 39.7547C134.494 39.7547 134.65 38.6594 134.65 37.3207C134.65 35.3736 134.494 34.8462 133.909 34.4811C132.699 33.8321 130.475 33.9538 130.202 34.7245Z" fill="white"/>
<path d="M45.4502 43.5273C45.3331 43.8519 45.2941 45.4339 45.3721 47.0972L45.4892 50.099L47.7524 50.2207C50.3277 50.3424 50.8739 49.6122 48.3376 49.4094C46.8159 49.2877 46.6598 49.166 46.5427 48.1519C46.4257 47.0972 46.5037 47.0566 47.9865 47.0566C49.9765 47.0566 50.0935 46.3264 48.1425 46.1641C46.8549 46.0424 46.6598 45.9207 46.6598 45.0283C46.6598 44.1358 46.8549 44.0141 48.3376 43.8924C50.7569 43.6896 50.3277 43 47.8304 43C46.3867 43 45.6063 43.1622 45.4502 43.5273Z" fill="white"/>
<path d="M111.237 46.6104C111.237 49.6123 111.354 50.3019 111.823 50.3019C112.252 50.3019 112.408 49.8151 112.408 48.2736C112.408 46.2858 112.447 46.2453 113.578 46.2453C114.71 46.2453 114.749 46.2858 114.749 48.2736C114.749 49.8151 114.905 50.3019 115.334 50.3019C115.764 50.3019 115.92 49.8151 115.92 48.3142C115.92 46.0019 115.217 45.0283 113.578 45.0283C112.72 45.0283 112.447 44.8255 112.33 44.1358C112.252 43.6491 111.979 43.2028 111.745 43.0811C111.354 42.9594 111.237 43.8519 111.237 46.6104Z" fill="white"/>
<path d="M116.895 43.4056C116.778 43.6085 116.934 43.8113 117.246 43.8113C117.598 43.8113 117.871 43.6085 117.871 43.4056C117.871 43.1623 117.715 43 117.52 43C117.286 43 117.012 43.1623 116.895 43.4056Z" fill="white"/>
<path d="M57.4292 44.3387C57.2341 44.8255 57.1951 46.3264 57.3512 47.6651C57.5853 49.9368 57.6633 50.0991 58.6779 50.2207C59.8094 50.383 60.1216 49.734 59.1461 49.3283C58.3267 49.0038 58.4047 46.6509 59.2632 46.0019C59.8875 45.5151 59.8875 45.4745 59.2632 45.2311C58.873 45.0689 58.5608 44.5821 58.5608 44.1764C58.5608 43.1217 57.8194 43.2028 57.4292 44.3387Z" fill="white"/>
<path d="M51.4201 45.3123C51.264 45.434 51.147 46.6509 51.147 47.9491C51.147 49.7745 51.264 50.3019 51.7323 50.3019C52.1615 50.3019 52.3176 49.8151 52.3176 48.2736C52.3176 46.7321 52.4736 46.1642 52.9419 45.9613C54.1125 45.5151 54.8539 46.4075 54.9709 48.4358C55.049 49.45 55.2441 50.3019 55.4782 50.3019C55.9854 50.3019 55.9074 46.083 55.3611 45.5151C54.8539 44.9877 51.8493 44.8255 51.4201 45.3123Z" fill="white"/>
<path d="M60.9019 46.083C60.2776 47.7462 60.3947 50.3019 61.097 50.3019C61.5262 50.3019 61.6823 49.8151 61.6823 48.3142C61.6823 46.6915 61.7994 46.2858 62.4627 46.1236C63.5943 45.8396 63.4382 45.0283 62.2676 45.0283C61.5653 45.0283 61.1751 45.3123 60.9019 46.083Z" fill="white"/>
<path d="M64.8039 45.8396C63.7504 46.9349 63.7504 49.2877 64.7649 49.8962C65.7404 50.4236 68.7059 50.4236 68.7059 49.8962C68.7059 49.6528 68.0425 49.4906 67.1841 49.4906C66.3257 49.4906 65.4672 49.2472 65.1941 48.8821C64.7649 48.3547 64.999 48.2736 66.911 48.2736C68.8229 48.2736 69.0961 48.1925 69.0961 47.4623C69.0961 46.3264 67.7304 45.0283 66.5598 45.0283C66.0135 45.0283 65.2331 45.3934 64.8039 45.8396ZM67.3012 46.083C68.3937 46.5292 67.9645 47.0566 66.5598 47.0566C65.2331 47.0566 64.7258 46.5292 65.7013 46.1236C66.4037 45.7991 66.5988 45.7991 67.3012 46.083Z" fill="white"/>
<path d="M70.1496 45.3123C69.9935 45.434 69.8765 47.0972 69.8765 48.9632C69.8765 51.6811 69.9935 52.3302 70.4618 52.3302C70.8129 52.3302 71.0471 51.9651 71.0471 51.316C71.0471 50.4641 71.2422 50.3019 72.1396 50.3019C73.7004 50.3019 74.2077 49.7745 74.4418 47.9896C74.7149 45.9613 73.8955 45.0283 71.8665 45.0283C71.0471 45.0283 70.2667 45.15 70.1496 45.3123ZM73.6224 47.2594C73.9345 48.517 73.2322 49.4906 71.9835 49.4906C71.1641 49.4906 71.0471 49.2877 71.0471 47.8679C71.0471 46.3264 71.1251 46.2453 72.2177 46.2453C73.1151 46.2453 73.4273 46.4481 73.6224 47.2594Z" fill="white"/>
<path d="M75.7296 45.7991C75.1052 47.0566 75.2223 50.3019 75.9247 50.3019C76.3539 50.3019 76.51 49.8151 76.51 48.3142C76.51 46.6915 76.627 46.2858 77.2904 46.1236C78.3829 45.8396 78.2658 45.0283 77.0953 45.0283C76.549 45.0283 75.9637 45.3528 75.7296 45.7991Z" fill="white"/>
<path d="M79.71 45.6774C78.5394 46.4887 78.5004 49.2472 79.5929 49.8962C80.5684 50.4236 83.5339 50.4236 83.5339 49.8962C83.5339 49.6528 82.8706 49.4906 82.0121 49.4906C81.1537 49.4906 80.2953 49.2472 80.0221 48.8821C79.5929 48.3547 79.827 48.2736 81.739 48.2736C83.8071 48.2736 83.9241 48.233 83.9241 47.3C83.9241 46.1642 82.6365 45.0283 81.3878 45.0283C80.9586 45.0283 80.1782 45.3123 79.71 45.6774ZM82.1292 46.083C83.2218 46.5292 82.7925 47.0566 81.3878 47.0566C80.0612 47.0566 79.5539 46.5292 80.5294 46.1236C81.2317 45.7991 81.4268 45.7991 82.1292 46.083Z" fill="white"/>
<path d="M85.25 45.4745C85.0939 45.7179 84.9768 46.6915 85.0159 47.6245C85.0159 50.0585 85.0549 50.3019 85.4841 50.3019C85.7182 50.3019 85.8743 49.4094 85.8743 48.3142C85.8743 46.083 86.2255 45.6368 87.6692 46.0019C88.4886 46.2453 88.6057 46.4887 88.6057 48.2736C88.6057 49.6123 88.7618 50.3019 89.1129 50.3019C89.7373 50.3019 89.5031 45.7585 88.8398 45.3528C88.1765 44.866 85.5621 44.9877 85.25 45.4745Z" fill="white"/>
<path d="M91.3375 45.8396C90.401 46.8132 90.323 48.7604 91.1814 49.6528C91.8447 50.3424 95.2395 50.5858 95.2395 49.9368C95.2395 49.6934 94.4981 49.4906 93.6006 49.4094C91.1424 49.2066 91.1814 48.2736 93.6397 48.2736C95.4736 48.2736 95.6297 48.1924 95.6297 47.3C95.6297 45.15 92.8983 44.217 91.3375 45.8396ZM94.381 46.5292C94.4591 46.8943 94.0689 47.0566 93.1324 47.0566C92.352 47.0566 91.7277 46.8943 91.7277 46.6915C91.7277 45.7991 94.0689 45.6774 94.381 46.5292Z" fill="white"/>
<path d="M96.8003 47.4217C96.8003 49.9774 97.0344 50.3019 99.0634 50.3019C100.819 50.3019 101.131 49.8151 101.014 47.4217C100.858 44.7443 100.195 44.7038 99.9219 47.3406C99.7658 49.0849 99.6097 49.2877 98.7513 49.2877C97.8538 49.2877 97.7758 49.1255 97.6587 47.1377C97.5026 44.2575 96.8003 44.4604 96.8003 47.4217Z" fill="white"/>
<path d="M102.731 45.5151C102.029 46.2453 102.107 50.3019 102.848 50.3019C103.277 50.3019 103.433 49.8151 103.433 48.3142C103.433 46.6509 103.55 46.2858 104.253 46.1236C104.721 46.0019 104.955 45.7179 104.799 45.4745C104.487 44.866 103.316 44.9066 102.731 45.5151Z" fill="white"/>
<path d="M106.243 45.5151C105.072 46.7321 106.048 48.2736 108.038 48.2736C109.95 48.2736 109.404 49.2472 107.414 49.4094C106.516 49.4906 105.775 49.7339 105.775 49.9368C105.775 50.1802 106.633 50.3019 107.843 50.2207C109.638 50.099 109.872 49.9773 109.989 49.166C110.184 47.8679 109.404 47.0566 108.077 47.0566C107.453 47.0566 106.945 46.8538 106.945 46.6509C106.945 46.4075 107.57 46.2453 108.311 46.2453C109.248 46.2453 109.677 46.0424 109.677 45.6368C109.677 44.866 106.945 44.7849 106.243 45.5151Z" fill="white"/>
<path d="M116.934 45.3123C116.817 45.434 116.7 46.6509 116.7 47.9491C116.7 49.7745 116.817 50.3019 117.285 50.3019C117.754 50.3019 117.871 49.7745 117.871 47.9085C117.871 45.6368 117.52 44.7038 116.934 45.3123Z" fill="white"/>
<path d="M119.042 48.6792C119.042 51.6406 119.159 52.3302 119.627 52.3302C119.978 52.3302 120.212 51.9651 120.212 51.316C120.212 50.4641 120.407 50.3019 121.344 50.3019C122.748 50.3019 123.49 49.4094 123.49 47.6651C123.49 45.7179 122.748 45.0283 120.758 45.0283H119.042V48.6792ZM122.748 47.0566C123.1 48.233 122.28 49.4906 121.188 49.4906C120.329 49.4906 120.212 49.3283 120.212 47.8679C120.212 46.3264 120.29 46.2453 121.344 46.2453C122.163 46.2453 122.592 46.4887 122.748 47.0566Z" fill="white"/>
<path d="M45.2939 57.6038V61.2547H47.284C50.3275 61.2547 50.7567 60.8491 50.7567 57.9689C50.7567 54.3585 50.4446 53.9528 47.6351 53.9528H45.2939V57.6038ZM49.5081 57.3198C49.6642 59.6321 49.0789 60.5245 47.6742 60.3623C46.6987 60.2406 46.6596 60.0783 46.5426 57.6849L46.4255 55.1293L47.9083 55.2509C49.391 55.3726 49.391 55.3726 49.5081 57.3198Z" fill="white"/>
<path d="M69.0962 57.6443C69.0962 60.4028 69.2133 61.2953 69.6034 61.1736C69.9156 61.0519 70.1107 59.8349 70.1887 57.4821C70.2668 54.5208 70.1887 53.9528 69.6815 53.9528C69.2133 53.9528 69.0962 54.6019 69.0962 57.6443Z" fill="white"/>
<path d="M109.989 54.967C109.677 55.7377 109.677 56.2245 109.989 56.9953C110.379 57.8472 110.73 58.0094 112.018 58.0094C113.072 58.0094 113.696 58.2123 113.813 58.6179C114.203 59.6321 113.189 60.4434 111.589 60.4434C110.73 60.4434 110.067 60.6057 110.067 60.8491C110.067 61.0519 111.043 61.2547 112.213 61.2547C114.125 61.2547 114.437 61.133 114.788 60.2811C115.725 58.2123 114.632 56.833 112.135 56.7925C111.511 56.7925 111.238 56.5491 111.238 56.0217C111.238 55.3726 111.55 55.2104 112.876 55.0887C115.452 54.8859 115.257 53.9528 112.642 53.9528C110.691 53.9528 110.379 54.0745 109.989 54.967Z" fill="white"/>
<path d="M127.626 54.3585C127.626 54.5613 127.821 54.7641 128.016 54.7641C128.25 54.7641 128.406 54.5613 128.406 54.3585C128.406 54.1151 128.25 53.9528 128.016 53.9528C127.821 53.9528 127.626 54.1151 127.626 54.3585Z" fill="white"/>
<path d="M103.511 55.4538C103.199 56.184 103.16 56.6708 103.433 56.9547C103.628 57.1576 103.823 58.2528 103.823 59.3076C103.823 61.133 103.901 61.2547 104.799 61.2547C105.852 61.2547 106.126 60.6462 105.189 60.2811C104.838 60.1594 104.604 59.5104 104.604 58.6179C104.604 57.7255 104.838 57.0764 105.189 56.9547C105.501 56.7925 105.774 56.5491 105.774 56.3462C105.774 56.1434 105.501 55.9811 105.189 55.9811C104.877 55.9811 104.604 55.616 104.604 55.1698C104.604 54.034 104.096 54.1557 103.511 55.4538Z" fill="white"/>
<path d="M136.327 55.0481C136.171 55.4538 135.898 55.9 135.664 56.0623C135.43 56.2245 135.43 56.5085 135.703 56.8736C135.976 57.1575 136.21 58.2528 136.288 59.2264C136.366 60.7679 136.561 61.0924 137.303 61.1736C137.771 61.2547 138.161 61.133 138.161 60.8896C138.161 60.6462 138.005 60.4434 137.771 60.4434C137.224 60.4434 137.303 57.4415 137.888 56.833C138.278 56.3868 138.278 56.2651 137.888 56.1028C137.615 55.9811 137.381 55.6566 137.381 55.3726C137.381 54.4802 136.6 54.2368 136.327 55.0481Z" fill="white"/>
<path d="M52.6689 56.7113C51.6934 57.5632 51.4983 59.5915 52.3177 60.6057C52.864 61.3358 56.2197 61.5387 56.2197 60.8491C56.2197 60.6057 55.7124 60.4434 55.0881 60.4434C52.2006 60.4434 51.8885 59.3075 54.7369 59.1453C57.0781 59.0236 57.5853 58.2123 56.2587 56.833C55.2442 55.7783 53.8394 55.7377 52.6689 56.7113ZM55.6344 57.6038C55.6344 58.2528 54.1906 58.6179 53.2151 58.2528C52.7079 58.05 52.7079 57.8877 53.1371 57.3604C53.7224 56.5896 55.6344 56.7519 55.6344 57.6038Z" fill="white"/>
<path d="M57.3901 56.0623C57.3901 56.3057 59.185 60.6868 59.4582 61.1736C59.9264 61.9038 60.3947 61.4575 61.2531 59.4292C62.4627 56.5896 62.5798 55.9811 61.9555 55.9811C61.6043 55.9811 61.136 56.7113 60.8239 57.6849C60.5507 58.6585 60.1605 59.3887 59.9264 59.3481C59.7313 59.3481 59.3021 58.5774 59.029 57.6443C58.7168 56.7113 58.2486 55.9811 57.9364 55.9811C57.6243 55.9811 57.3901 56.0217 57.3901 56.0623Z" fill="white"/>
<path d="M63.7119 56.6302C62.6194 57.4009 62.5413 59.6321 63.5559 60.5651C64.3363 61.2953 67.5359 61.5387 67.5359 60.8896C67.5359 60.6462 66.7945 60.4434 65.897 60.3622C63.5559 60.2 63.5168 59.3075 65.858 59.1453C67.4188 59.0641 67.731 58.9019 67.848 58.1717C68.1212 56.2651 65.5459 55.2915 63.7119 56.6302ZM66.7165 57.3198C67.2627 58.05 66.8725 58.4151 65.5459 58.4151C64.2972 58.4151 63.6729 57.6849 64.4533 57.1575C65.2337 56.6302 66.2092 56.7113 66.7165 57.3198Z" fill="white"/>
<path d="M71.5151 56.4679C71.242 56.7519 71.0469 57.6849 71.0469 58.6179C71.0469 59.5509 71.242 60.4839 71.5151 60.7679C72.2175 61.4981 75.6122 61.3764 75.8853 60.6056C76.2755 59.5104 76.1585 56.9953 75.6512 56.4679C75.0269 55.8189 72.1394 55.8189 71.5151 56.4679ZM74.8708 57.2792C75.144 57.5632 75.3391 58.1717 75.3391 58.6585C75.3391 60.7273 72.5296 61.133 72.2955 59.1047C72.2175 58.4556 72.2565 57.6849 72.3735 57.3604C72.6467 56.6707 74.2465 56.6302 74.8708 57.2792Z" fill="white"/>
<path d="M77.29 59.5915C77.29 61.7821 77.4461 63.283 77.6802 63.283C77.9144 63.283 78.0704 62.9179 78.0704 62.4717C78.0704 61.9443 78.4216 61.6198 79.163 61.4575C80.8018 61.0925 81.3481 60.6462 81.7773 59.4698C82.0505 58.6585 81.9724 58.0906 81.5432 57.2792C81.075 56.3868 80.6457 56.1434 79.124 56.0623L77.29 55.9406V59.5915ZM80.3336 57.1575C80.6457 57.3604 80.8018 58.05 80.7238 58.8613C80.6457 59.9972 80.4506 60.2811 79.5532 60.3623C78.7728 60.4434 78.4606 60.2811 78.2655 59.6321C77.6412 57.6038 78.8508 56.1434 80.3336 57.1575Z" fill="white"/>
<path d="M82.7534 58.6585C82.7534 60.6868 82.8705 61.2547 83.3387 61.2547C83.807 61.2547 83.924 60.7274 83.924 58.983C83.924 56.8736 83.963 56.7519 84.8215 56.8736C85.5628 56.9953 85.7189 57.3198 85.875 58.983C86.1481 61.7821 86.9676 61.9038 87.1236 59.1453C87.2407 57.1576 87.3187 56.9953 88.2162 56.9953C89.1136 56.9953 89.1917 57.1576 89.3087 59.1047C89.3868 60.2811 89.5819 61.2547 89.816 61.2547C90.3623 61.2547 90.2452 56.9547 89.6989 56.5085C89.4258 56.2651 87.748 56.0623 85.9921 56.0623L82.7534 56.0217V58.6585Z" fill="white"/>
<path d="M92.196 56.6302C91.2205 57.3198 90.9864 59.916 91.8058 60.7679C92.352 61.3358 96.0199 61.417 96.0199 60.849C96.0199 60.6056 95.4346 60.4434 94.6932 60.4434C93.9519 60.4434 93.0934 60.3217 92.7422 60.2C91.4936 59.7132 92.1569 59.2264 94.0689 59.2264C95.9419 59.2264 96.0199 59.1858 96.0199 58.0906C96.0199 57.4821 95.8248 56.7519 95.5517 56.4679C94.8883 55.7783 93.2495 55.8594 92.196 56.6302ZM95.1615 57.4821C95.3566 58.1717 94.303 58.5773 93.0544 58.2528C92.196 58.0094 92.1179 57.8877 92.5471 57.3604C93.0934 56.6707 94.8883 56.7519 95.1615 57.4821Z" fill="white"/>
<path d="M97.5806 58.6179C97.5806 61.7821 98.2829 62.1877 98.439 59.1047C98.5561 57.0764 98.5951 56.9953 99.7267 56.9953C100.858 56.9953 100.897 57.0764 101.014 59.1047C101.092 60.2811 101.287 61.2547 101.522 61.2547C102.029 61.2547 101.951 57.0359 101.405 56.4679C101.131 56.184 100.195 55.9811 99.2584 55.9811H97.5806V58.6179Z" fill="white"/>
<path d="M116.544 56.6302C116.427 56.9953 116.31 57.8877 116.31 58.6179C116.31 60.9302 116.583 61.2547 118.69 61.2547C120.758 61.2547 121.383 60.6462 121.383 58.6179C121.383 56.5896 120.758 55.9811 118.69 55.9811C117.325 55.9811 116.7 56.1434 116.544 56.6302ZM119.588 57.0359C120.407 57.3604 120.446 59.9566 119.627 60.2811C119.315 60.4434 118.612 60.4028 118.066 60.2811C117.247 60.0783 117.09 59.7943 117.09 58.6585C117.09 56.9953 118.027 56.4274 119.588 57.0359Z" fill="white"/>
<path d="M122.787 56.8736C121.382 58.9425 122.514 61.2547 124.933 61.2547C125.752 61.2547 126.455 61.0519 126.455 60.8491C126.455 60.6057 125.87 60.4434 125.167 60.4434C123.762 60.4434 122.943 59.8349 122.943 58.7802C122.943 57.6849 124.036 56.7925 125.323 56.7925C125.948 56.7925 126.455 56.5896 126.455 56.3868C126.455 56.1434 125.752 55.9811 124.933 55.9811C123.762 55.9811 123.216 56.2245 122.787 56.8736Z" fill="white"/>
<path d="M127.626 58.6179C127.626 60.1189 127.782 61.2547 128.016 61.2547C128.25 61.2547 128.406 60.1189 128.406 58.6179C128.406 57.117 128.25 55.9811 128.016 55.9811C127.782 55.9811 127.626 57.117 127.626 58.6179Z" fill="white"/>
<path d="M130.357 56.7924C129.382 57.8066 129.343 59.7132 130.279 60.5651C131.06 61.2953 134.259 61.5387 134.259 60.8896C134.259 60.6462 133.518 60.4434 132.62 60.3622C130.162 60.1594 130.201 59.2264 132.659 59.2264C134.61 59.2264 134.649 59.1858 134.649 58.0094C134.649 55.9811 131.879 55.2104 130.357 56.7924ZM133.44 57.3604C133.791 57.8066 133.752 57.9689 133.245 58.1717C131.723 58.7802 129.967 57.9689 131.177 57.1575C131.996 56.6302 132.933 56.7113 133.44 57.3604Z" fill="white"/>
<path d="M139.76 58.2934C140.19 59.5915 140.658 60.9302 140.775 61.2547C140.892 61.5792 140.97 62.3094 140.931 62.8774C140.775 64.6217 141.828 63.0396 143.194 59.4698C144.599 55.7783 144.56 55.9811 143.818 55.9811C143.506 55.9811 142.96 56.833 142.57 58.0094C142.18 59.1047 141.75 60.0377 141.594 60.0377C141.477 60.0377 141.048 59.1047 140.697 58.0094C140.346 56.8736 139.799 55.9811 139.526 55.9811C139.097 55.9811 139.175 56.4679 139.76 58.2934Z" fill="white"/>
<path d="M38.3878 56.8736C36.671 57.7255 37.2172 60.5245 39.1292 60.7679C40.729 60.9708 41.7825 60.2 41.7825 58.8208C41.7825 57.8877 41.5094 57.4821 40.612 56.9953C39.9876 56.6708 39.4414 56.3868 39.3633 56.4274C39.2853 56.4274 38.8561 56.6302 38.3878 56.8736Z" fill="white"/>
</svg>
